Simulation
nRows=27
nColumns=15
endheader
time  TH_x TH_y TH_z SC_y  SC_z  SC_x  AC_y  AC_z  AC_x  GH_y  GH_z  GH_yy  EL_x  PS_y
8.073123595505619  0.000000  0.000000  0.000000  -18.85889049485426  -0.48700630837770437  -2.1692193375998245  58.70153630333132  10.254329131753238  2.2734585059518113  -57.215371641161965  5.399014370889851  108.56304587859542  16.777792580046484  120.000000
8.113288389513109  0.000000  0.000000  0.000000  -18.525744981122966  -0.18566566542569954  -2.0508725743380087  58.71292260490605  9.965384960209294  2.5556428773686752  -49.57772096870042  5.418485329378312  100.41001235308953  16.2869798846883  120.000000
8.153453183520599  0.000000  0.000000  0.000000  -18.204201580330896  0.16039517554602958  -1.933038729027557  58.71827025931298  9.728026995634348  2.8747185416789924  -40.508290773169655  5.484486974894326  90.69570044759071  15.73683730367429  120.000000
8.19361797752809  0.000000  0.000000  0.000000  -17.912328970251732  0.5649380817108125  -1.7926772996338902  58.72240086600281  9.564617272767908  3.232856339111288  -30.028445061864332  5.684267876291944  79.44716564587162  15.148765513399413  120.000000
8.23378277153558  0.000000  0.000000  0.000000  -17.67088833276623  1.0397755170203182  -1.609082162371839  58.72838591055026  9.491796800121085  3.631222350148789  -18.748926259526247  6.116918851517817  67.28173897487149  14.546974044660098  120.000000
8.273947565543072  0.000000  0.000000  0.000000  -17.50129162713234  1.593365785504345  -1.3647224056453133  58.73692620410456  9.519234116561519  4.070073091205266  -7.752998436310589  6.864941570103086  55.29104325303211  13.955116047225092  120.000000
8.314112359550561  0.000000  0.000000  0.000000  -17.422106954366264  2.2288526047318697  -1.045695274591278  58.74771575154491  9.648813091948016  4.549447486846535  1.9648785670520197  7.967383872481988  44.48108859529082  13.39396995561338  120.000000
8.354277153558053  0.000000  0.000000  0.000000  -17.445395454961716  2.9420714589225274  -0.6416541578591791  58.76142235802398  9.875179503077414  5.0704209378413525  9.943534948096598  9.418896640668613  35.328592731848694  12.879574389579181  120.000000
8.394441947565543  0.000000  0.000000  0.000000  -17.576379778581845  3.7227196347354967  -0.14603111698032134  58.77993846046616  10.186553319146899  5.634999134934305  16.218419239281523  11.186554628567004  27.817247951377915  12.421770669724722  120.000000
8.434606741573035  0.000000  0.000000  0.000000  -17.81533957415496  4.556843295248426  0.44380236067575085  58.80538077759761  10.566197727920725  6.2443161192126055  21.06262494326534  13.225586151337424  21.695376384203705  12.024051968276288  120.000000
8.474771535580524  0.000000  0.000000  0.000000  -18.158893990393057  5.428405419882678  1.1268858326665803  58.83919579753952  10.994499286468667  6.897618298605526  24.792198208082915  15.487932818846513  16.668818907913035  11.684617821047125  120.000000
8.514936329588014  0.000000  0.000000  0.000000  -18.60105417032051  6.320808484754011  1.8994460241001228  58.88179963302976  11.450957230314248  7.592264987253909  27.684135741778977  17.926118092042678  12.48081249945393  11.398276814936075  120.000000
8.555101123595506  0.000000  0.000000  0.000000  -19.134841820031387  7.218239470742849  2.7556167237953613  58.93253975040469  11.91595156829973  8.323443202703647  29.955615307640528  20.495161285242595  8.930746919940104  11.158289098680177  120.000000
8.595265917602996  0.000000  0.000000  0.000000  -19.753620625867228  8.106840727483172  3.687917886821488  58.989371689564166  12.372133704571372  9.083857244604438  31.76704110404504  23.153222049711708  5.869824308600755  10.957732855862691  120.000000
8.635430711610487  0.000000  0.000000  0.000000  -20.451698913261872  8.97505488591796  4.687668210228849  59.04894099666372  12.805277490619627  9.86378673261708  33.23296589739513  25.861715596835918  3.189504061986423  10.790382295238581  120.000000
8.675595505617977  0.000000  0.000000  0.000000  -21.22403536677061  9.813372474265107  5.745195598368434  59.10691914145791  13.204600458616346  10.651746882720488  34.43406073948183  28.58524301600679  0.8098521278247475  10.65108226064888  120.000000
8.715760299625469  0.000000  0.000000  0.000000  -22.065398900737392  10.614014970548402  6.849854215882274  59.15865260001942  13.562709712842434  11.435226857603073  35.426815493691166  31.29141769523214  -1.32903426663635  10.535935221056754  120.000000
8.755925093632959  0.000000  0.000000  0.000000  -22.96961803417088  11.37059882152349  7.9897968114041875  59.19966924855764  13.87520001710173  12.201456855514778  36.250866704478625  33.950560707357944  -3.2730239034556914  10.442227457945219  120.000000
8.79608988764045  0.000000  0.000000  0.000000  -23.92897406347015  12.078001870542305  9.151791011096458  59.22614045898384  14.140095968889293  12.93809675649866  36.93443425989525  36.535432266789186  -5.05786876363367  10.368255177222606  120.000000
8.83625468164794  0.000000  0.000000  0.000000  -24.933737258227637  12.732309922761239  10.321343186925597  59.23525790820408  14.357536125426286  13.63385807895901  37.49833038145855  39.02140318288637  -6.711759070223436  10.313007679606432  120.000000
8.87641947565543  0.000000  0.000000  0.000000  -25.97204947665921  13.330851559405916  11.4833471587874  59.225378960223665  14.529633526785261  14.279216169971637  37.95871067678752  41.38681888836745  -8.256705179666016  10.27582401923627  120.000000
8.916584269662922  0.000000  0.000000  0.000000  -27.030219317961276  13.872179818848222  12.622883502339777  59.19600604124943  14.660350853661573  14.866946191942988  38.32885980984259  43.613491639785686  -9.709160563827304  10.25593802807883  120.000000
8.956749063670411  0.000000  0.000000  0.000000  -28.093392967520998  14.3558540988325  13.726142460942956  59.14748996326678  14.755212341100506  15.392557670497922  38.62030538354562  45.687008789154824  -11.080132985494505  10.251979453566918  120.000000
8.996913857677903  0.000000  0.000000  0.000000  -29.14631007729841  14.782285630945466  14.781260061387576  59.08068780798121  14.820997426017364  15.854327276236331  38.84340336167557  47.596952731280986  -12.374945226216576  10.261718911998182  120.000000
9.037078651685393  0.000000  0.000000  0.000000  -30.174048799773153  15.152419552087851  15.778969762026748  58.99671226916552  14.865276085208718  16.253185461274484  39.00784714112663  49.336860212322186  -13.59367540319366  10.281721972050953  120.000000
9.077243445692885  0.000000  0.000000  0.000000  -31.16255602669432  15.467525360242687  16.71279000581777  58.89677569062792  14.895928964727435  16.592188815191303  39.122944035761606  50.90395296870906  -14.73152711190899  10.307426052565155  120.000000
9.117408239700374  0.000000  0.000000  0.000000  -32.09886877079551  15.729064085299667  17.578760435982907  58.78204444865553  14.920433104297835  16.875949554771708  39.19778539056568  52.29832722840049  -15.779809400940861  10.333806899127906  120.000000
